<svg xmlns="http://www.w3.org/2000/svg" viewBox="0 0 100 100">
  <rect width="100" height="100" rx="14" fill="#646cff"/>
  <path fill="#fff" d="M21.337 58.681c-3.214 0-5.838-2.624-5.838-5.838s2.624-5.838 5.838-5.838c3.214 0 5.838 2.624 5.838 5.838s-2.624 5.838-5.838 5.838zm17.337 0c-3.214 0-5.838-2.624-5.838-5.838s2.624-5.838 5.838-5.838c3.214 0 5.838 2.624 5.838 5.838s-2.624 5.838-5.838 5.838zm17.336 0c-3.214 0-5.838-2.624-5.838-5.838s2.624-5.838 5.838-5.838c3.214 0 5.838 2.624 5.838 5.838s-2.624 5.838-5.838 5.838z"/>
</svg>